<svg width="256" height="256" viewBox="0 0 256 256" fill="none" xmlns="http://www.w3.org/2000/svg">
<path d="M0 252C0 254.209 1.79086 256 4 256H252C254.209 256 256 254.209 256 252V222.008C256 219.799 254.209 218.008 252 218.008H4C1.79086 218.008 0 219.799 0 222.008V252Z" fill="black"/>
<path d="M0 195.517C0 197.456 1.39045 199.115 3.29931 199.455L251.299 243.58C253.75 244.016 256 242.132 256 239.642V209.109C256 207.14 254.567 205.464 252.622 205.158L76.727 177.468C76.3084 177.402 76 177.041 76 176.617V176.617C76 176.195 76.3068 175.834 76.7241 175.767L252.636 147.459C254.574 147.147 256 145.473 256 143.51V112.015C256 110.053 254.576 108.38 252.639 108.066L77.7748 79.7693C77.3282 79.6971 77 79.3115 77 78.8591V78.8591C77 78.4047 77.331 78.0181 77.78 77.948L252.616 50.6805C254.564 50.3768 256 48.6994 256 46.7283V16.0975C256 13.6073 253.749 11.7224 251.298 12.1596L3.29773 56.3865C1.3896 56.7268 0 58.3861 0 60.3244V93.1793C0 95.1228 1.39703 96.7851 3.31157 97.1196L171.914 126.577C172.542 126.687 173 127.232 173 127.869V127.869C173 128.506 172.542 129.051 171.914 129.16L3.31156 158.618C1.39703 158.953 0 160.615 0 162.558V195.517Z" fill="black"/>
<path d="M0 33.9922C0 36.2013 1.79086 37.9922 4 37.9922H252C254.209 37.9922 256 36.2013 256 33.9922V4C256 1.79086 254.209 0 252 0H4C1.79086 0 0 1.79086 0 4V33.9922Z" fill="black"/>
</svg>
